<svg viewBox="0 0 11.8748 6" xmlns="http://www.w3.org/2000/svg" xmlns:xlink="http://www.w3.org/1999/xlink" width="11.874817" height="6.000000" fill="none" customFrame="#000000">
	<path id="路径" d="M11.7502 6.66134e-16L10.5783 6.66134e-16C10.4987 6.66134e-16 10.4237 0.0292969 10.3768 0.0773437L5.93771 4.66641L1.49864 0.0773437C1.45176 0.0292969 1.37676 6.66134e-16 1.29708 6.66134e-16L0.125198 6.66134e-16C0.0236354 6.66134e-16 -0.0357397 0.0867187 0.0236354 0.148828L5.53302 5.84531C5.73302 6.05156 6.1424 6.05156 6.34083 5.84531L11.8502 0.148828C11.9112 0.0867187 11.8518 0 11.7502 6.66134e-16Z" fill="rgb(52,71,103)" fill-opacity="0.650980413" fill-rule="evenodd" />
	<path id="路径" d="M10.5783 6.66134e-16C10.4987 6.66134e-16 10.4237 0.0292969 10.3768 0.0773437L5.93771 4.66641L1.49864 0.0773437C1.45176 0.0292969 1.37676 6.66134e-16 1.29708 6.66134e-16L0.125198 6.66134e-16C0.0236354 6.66134e-16 -0.0357397 0.0867187 0.0236354 0.148828L5.53302 5.84531C5.73302 6.05156 6.1424 6.05156 6.34083 5.84531L11.8502 0.148828C11.9112 0.0867187 11.8518 0 11.7502 6.66134e-16L10.5783 6.66134e-16Z" fill-rule="evenodd" stroke="rgb(151,151,151)" stroke-opacity="0" stroke-width="0.000000" />
</svg>
